<mxfile host="app.diagrams.net" agent="Mozilla/5.0 (Windows NT 10.0; Win64; x64) AppleWebKit/537.36 (KHTML, like Gecko) Chrome/127.0.0.0 Safari/537.36 OPR/113.0.0.0 (Edition std-1)" version="24.7.12">
  <diagram name="PÃ¡gina-1" id="LLfRCG8m2pTm137aA5I_">
    <mxGraphModel dx="1073" dy="451" grid="1" gridSize="10" guides="1" tooltips="1" connect="1" arrows="1" fold="1" page="1" pageScale="1" pageWidth="827" pageHeight="1169" math="0" shadow="0">
      <root>
        <mxCell id="0" />
        <mxCell id="1" parent="0" />
        <mxCell id="7dJhV1jAEM1B_3HuC21G-1" value="Estudiante" style="swimlane;fontStyle=1;align=center;verticalAlign=top;childLayout=stackLayout;horizontal=1;startSize=26;horizontalStack=0;resizeParent=1;resizeParentMax=0;resizeLast=0;collapsible=1;marginBottom=0;whiteSpace=wrap;html=1;" vertex="1" parent="1">
          <mxGeometry x="330" y="190" width="230" height="248" as="geometry" />
        </mxCell>
        <mxCell id="7dJhV1jAEM1B_3HuC21G-2" value="- nota1: double&amp;nbsp;&lt;div&gt;- nota2: double&amp;nbsp;&lt;div&gt;&amp;nbsp;- nota3: double&lt;/div&gt;&lt;/div&gt;" style="text;strokeColor=none;fillColor=none;align=left;verticalAlign=top;spacingLeft=4;spacingRight=4;overflow=hidden;rotatable=0;points=[[0,0.5],[1,0.5]];portConstraint=eastwest;whiteSpace=wrap;html=1;" vertex="1" parent="7dJhV1jAEM1B_3HuC21G-1">
          <mxGeometry y="26" width="230" height="104" as="geometry" />
        </mxCell>
        <mxCell id="7dJhV1jAEM1B_3HuC21G-3" value="" style="line;strokeWidth=1;fillColor=none;align=left;verticalAlign=middle;spacingTop=-1;spacingLeft=3;spacingRight=3;rotatable=0;labelPosition=right;points=[];portConstraint=eastwest;strokeColor=inherit;" vertex="1" parent="7dJhV1jAEM1B_3HuC21G-1">
          <mxGeometry y="130" width="230" height="8" as="geometry" />
        </mxCell>
        <mxCell id="7dJhV1jAEM1B_3HuC21G-4" value="+ Estudiante(nota1: double, nota2: double, nota3: double)&amp;nbsp;&lt;div&gt;&amp;nbsp;+ setNotas(nota1: double, nota2: double, nota3: double): void&amp;nbsp;&lt;/div&gt;&lt;div&gt;&amp;nbsp;+ calcularPromedio(): double&amp;nbsp;&lt;br&gt;&amp;nbsp;+ mostrarPromedio(): void &lt;/div&gt;" style="text;strokeColor=none;fillColor=none;align=left;verticalAlign=top;spacingLeft=4;spacingRight=4;overflow=hidden;rotatable=0;points=[[0,0.5],[1,0.5]];portConstraint=eastwest;whiteSpace=wrap;html=1;" vertex="1" parent="7dJhV1jAEM1B_3HuC21G-1">
          <mxGeometry y="138" width="230" height="110" as="geometry" />
        </mxCell>
      </root>
    </mxGraphModel>
  </diagram>
</mxfile>
